<svg width="36" height="36" viewBox="0 0 36 36" fill="none" xmlns="http://www.w3.org/2000/svg">
<rect width="36" height="36" rx="18" fill="#003F47"/>
<path d="M23.0041 26.1208C21.9376 27.0458 20.7732 26.8997 19.6523 26.4616C18.4661 26.0137 17.3779 25.9942 16.1264 26.4616C14.5594 27.0653 13.7323 26.89 12.7964 26.1208C7.48583 21.2232 8.26936 13.7647 14.2982 13.4921C15.7673 13.5603 16.7902 14.2126 17.65 14.2711C18.9341 14.0374 20.1638 13.3655 21.5349 13.4532C23.1782 13.57 24.4188 14.1542 25.235 15.2058C21.8397 17.0266 22.6449 21.0284 25.7573 22.1482C25.137 23.6087 24.3317 25.0595 22.9932 26.1305L23.0041 26.1208ZM17.5411 13.4337C17.3779 11.2624 19.3476 9.4708 21.6111 9.29553C21.9267 11.8076 19.0647 13.6771 17.5411 13.4337Z" fill="white"/>
</svg>
