<svg width="36" height="36" viewBox="0 0 36 36" fill="none" xmlns="http://www.w3.org/2000/svg">
<rect width="36" height="36" rx="18" fill="#003F47"/>
<g clip-path="url(#clip0_1_1211)">
<path d="M22.4158 20.3045L22.9078 17.0968H19.8302V15.0153C19.8302 14.1376 20.2601 13.2823 21.6386 13.2823H23.0379V10.5515C23.0379 10.5515 21.768 10.3347 20.5538 10.3347C18.0192 10.3347 16.3625 11.8709 16.3625 14.6521V17.0968H13.5449V20.3045H16.3625V28.0588C16.936 28.1487 17.5158 28.1937 18.0963 28.1936C18.6769 28.1937 19.2566 28.1487 19.8302 28.0588V20.3045H22.4158Z" fill="#003F47"/>
<path d="M29.1935 17.0968C29.1935 10.9682 24.2253 6 18.0968 6C11.9682 6 7 10.9682 7 17.0968C7 22.6355 11.058 27.2263 16.3629 28.0587V20.3044H13.5454V17.0968H16.3629V14.652C16.3629 11.8709 18.0196 10.3347 20.5544 10.3347C21.7684 10.3347 23.0383 10.5514 23.0383 10.5514V13.2823H21.6391C20.2606 13.2823 19.8306 14.1377 19.8306 15.0153V17.0968H22.9083L22.4163 20.3044H19.8306V28.0587C25.1356 27.2263 29.1935 22.6355 29.1935 17.0968Z" fill="white"/>
</g>
<defs>
<clipPath id="clip0_1_1211">
<rect x="7" y="6" width="22.1935" height="22.1935" rx="11.0968" fill="white"/>
</clipPath>
</defs>
</svg>
