<svg width="36" height="36" viewBox="0 0 36 36" fill="none" xmlns="http://www.w3.org/2000/svg">
<rect width="36" height="36" rx="18" fill="#003F47"/>
<g clip-path="url(#clip0_1_1217)">
<path d="M14.7314 8.72994C12.5139 9.4992 10.6015 10.9593 9.27522 12.8957C7.94889 14.8322 7.27849 17.1429 7.3625 19.4886C7.44651 21.8342 8.28049 24.091 9.74195 25.9276C11.2034 27.7642 13.2153 29.0838 15.4821 29.6924C17.3199 30.1666 19.2454 30.1875 21.093 29.7531C22.7667 29.3772 24.3141 28.573 25.5837 27.4193C26.905 26.182 27.8641 24.6078 28.3579 22.8662C28.8945 20.9722 28.99 18.9805 28.637 17.0439H18.317V21.3248H24.2937C24.1742 22.0076 23.9183 22.6592 23.5411 23.2408C23.1639 23.8223 22.6733 24.3218 22.0986 24.7093C21.3688 25.1921 20.5461 25.5169 19.6833 25.6629C18.818 25.8238 17.9305 25.8238 17.0652 25.6629C16.1882 25.4816 15.3585 25.1196 14.6291 24.6001C13.4572 23.7706 12.5774 22.5921 12.115 21.2329C11.6448 19.8482 11.6448 18.347 12.115 16.9624C12.4441 15.9918 12.9882 15.108 13.7067 14.3772C14.5288 13.5254 15.5698 12.9165 16.7152 12.6174C17.8606 12.3183 19.0663 12.3404 20.2 12.6814C21.0856 12.9533 21.8955 13.4283 22.565 14.0685C23.2389 13.3981 23.9116 12.7259 24.5832 12.052C24.93 11.6897 25.308 11.3446 25.6496 10.9736C24.6276 10.0225 23.4279 9.28245 22.1194 8.79583C19.7366 7.93061 17.1293 7.90736 14.7314 8.72994Z" fill="#003F47"/>
<path d="M14.731 8.72993C17.1287 7.90679 19.736 7.92943 22.119 8.79408C23.4278 9.28401 24.6269 10.0276 25.6475 10.9822C25.3007 11.3533 24.9348 11.7 24.5811 12.0607C23.9084 12.7323 23.2362 13.4016 22.5646 14.0685C21.8951 13.4283 21.0852 12.9533 20.1996 12.6814C19.0663 12.3392 17.8607 12.3158 16.7149 12.6137C15.5692 12.9116 14.5277 13.5193 13.7046 14.3702C12.9861 15.1011 12.442 15.9848 12.1129 16.9554L8.51855 14.1725C9.8051 11.6213 12.0327 9.66973 14.731 8.72993Z" fill="#E33629"/>
<path d="M7.56558 16.9295C7.75877 15.972 8.07951 15.0448 8.51921 14.1726L12.1135 16.9624C11.6433 18.3471 11.6433 19.8482 12.1135 21.2329C10.916 22.1577 9.71789 23.087 8.51921 24.021C7.41846 21.8299 7.08275 19.3335 7.56558 16.9295Z" fill="#F8BD00"/>
<path d="M18.3172 17.0421H28.6372C28.9902 18.9787 28.8947 20.9705 28.358 22.8645C27.8643 24.6061 26.9052 26.1802 25.5838 27.4176C24.4239 26.5125 23.2587 25.6144 22.0988 24.7093C22.6738 24.3214 23.1647 23.8214 23.5419 23.2392C23.9191 22.657 24.1748 22.0047 24.2938 21.3213H18.3172C18.3154 19.8961 18.3172 18.4691 18.3172 17.0421Z" fill="#587DBD"/>
<path d="M8.51758 24.021C9.71626 23.0962 10.9144 22.1669 12.1119 21.2329C12.5752 22.5926 13.4563 23.7711 14.6295 24.6001C15.3612 25.1172 16.1926 25.4763 17.0708 25.6543C17.9361 25.8152 18.8236 25.8152 19.6889 25.6543C20.5517 25.5082 21.3744 25.1834 22.1042 24.7007C23.2642 25.6057 24.4293 26.5039 25.5893 27.409C24.3199 28.5632 22.7725 29.368 21.0985 29.7445C19.2509 30.1788 17.3255 30.158 15.4877 29.6838C14.0342 29.2957 12.6766 28.6116 11.4998 27.6742C10.2543 26.6854 9.23706 25.4392 8.51758 24.021Z" fill="#319F43"/>
</g>
<defs>
<clipPath id="clip0_1_1217">
<rect x="7" y="8" width="22.1935" height="22.1935" rx="11.0968" fill="white"/>
</clipPath>
</defs>
</svg>
